<svg width="370" height="315" viewBox="0 0 370 315" fill="none" xmlns="http://www.w3.org/2000/svg">
<g filter="url(#filter0_f_1789_1070)">
<path d="M77.1231 183.409C77.1036 183.794 77.1036 184.188 77.1036 184.573C77.1036 216.17 91.3014 244.503 113.754 263.7C116.4 265.963 120.317 265.696 122.798 263.251L140.476 245.833L180.119 206.77C182.844 204.085 187.22 204.085 189.945 206.77L229.384 245.631L245.739 261.747C248.259 264.229 252.253 264.461 254.888 262.1C255.127 261.887 255.364 261.672 255.601 261.456C258.431 258.874 258.354 254.472 255.626 251.784L239.378 235.774L186.992 184.156C185.657 182.84 184.905 181.044 184.905 179.17V115.413C184.905 109.202 192.393 106.068 196.818 110.427L237.365 150.373L281.707 194.065L288.457 200.716L335.632 247.199C337.726 249.263 338.321 252.423 337.021 255.06C328.771 271.804 317.755 286.977 304.567 300.008C301.235 303.3 297.767 306.457 294.163 309.46C278.598 322.479 260.617 332.762 240.965 339.566C238.509 340.416 235.796 339.756 233.945 337.932L184.96 289.666C184.925 289.631 184.905 289.584 184.905 289.535V289.482C184.905 289.466 184.912 289.451 184.923 289.44L184.954 289.409C184.986 289.378 184.956 289.312 184.911 289.305C184.907 289.304 184.903 289.304 184.899 289.304C184.877 289.306 184.855 289.307 184.834 289.309C184.753 289.313 184.707 289.416 184.765 289.473C184.799 289.507 184.799 289.562 184.765 289.596L135.751 337.892C133.899 339.717 131.183 340.376 128.726 339.524C109.18 332.742 91.2786 322.509 75.775 309.585C39.1508 279.033 15.9004 233.406 15.9004 182.427C15.9004 164.532 18.7627 147.292 24.0673 131.13C30.935 110.232 41.8666 91.1346 55.9731 74.761C59.0211 71.2186 62.2253 67.7918 65.5663 64.5093C79.9464 50.3785 96.8957 38.7889 115.672 30.4721C130.697 23.8109 146.884 19.2579 163.853 17.1787C170.75 16.3316 177.774 15.8984 184.905 15.8984C236.642 15.8984 282.948 38.8081 313.955 74.8957C327.964 91.2116 338.846 110.213 345.694 131.015C351.019 147.206 353.9 164.484 353.9 182.427C353.9 184.65 353.856 186.863 353.769 189.064C353.539 194.855 346.65 197.297 342.522 193.23L312.538 163.685L268.196 119.993L258.574 110.512C239.661 91.8855 213.665 80.2381 184.905 79.8531C184.407 79.8338 183.899 79.8338 183.401 79.8338C177.832 79.8338 172.362 80.2573 167.028 81.0659C145.204 84.3965 125.588 94.2534 110.279 108.567C106.841 111.763 103.636 115.19 100.676 118.809C86.1595 136.511 77.3771 158.959 77.1231 183.409Z" fill="#ECECEC" fill-opacity="0.2"/>
</g>
<defs>
<filter id="filter0_f_1789_1070" x="0.000391006" y="-0.00156212" width="369.8" height="355.835" filterUnits="userSpaceOnUse" color-interpolation-filters="sRGB">
<feFlood flood-opacity="0" result="BackgroundImageFix"/>
<feBlend mode="normal" in="SourceGraphic" in2="BackgroundImageFix" result="shape"/>
<feGaussianBlur stdDeviation="7.95" result="effect1_foregroundBlur_1789_1070"/>
</filter>
</defs>
</svg>
